<?xml version="1.0" encoding="iso-8859-1"?>
<!-- Generator: Adobe Illustrator 19.0.0, SVG Export Plug-In . SVG Version: 6.00 Build 0)  -->
<svg version="1.1" id="Capa_1" xmlns="http://www.w3.org/2000/svg" xmlns:xlink="http://www.w3.org/1999/xlink" x="0px" y="0px"
	 viewBox="0 0 384 384" style="enable-background:new 0 0 384 384;" xml:space="preserve">
<g>
	<g>
		<g>
			<polygon points="191.573,106.667 164.907,165.333 106.24,192 164.907,218.667 191.573,277.333 218.24,218.667 276.907,192 
				218.24,165.333 			"/>
			<polygon points="278.187,105.387 298.24,149.333 318.293,105.387 362.24,85.333 318.293,65.28 298.24,21.333 278.187,65.28 
				234.24,85.333 			"/>
			<path d="M341.333,149.333v192H42.24V42.667h192V0H42.667C19.2,0,0,19.2,0,42.667v298.667C0,364.8,19.2,384,42.667,384h298.667
				C364.8,384,384,364.8,384,341.333v-192H341.333z"/>
		</g>
	</g>
</g>
<g>
</g>
<g>
</g>
<g>
</g>
<g>
</g>
<g>
</g>
<g>
</g>
<g>
</g>
<g>
</g>
<g>
</g>
<g>
</g>
<g>
</g>
<g>
</g>
<g>
</g>
<g>
</g>
<g>
</g>
</svg>
